<svg xmlns="http://www.w3.org/2000/svg" viewBox="0 0 47.5 47.5" id="l"><defs><clipPath id="a"><path d="M0 38h38V0H0v38Z"></path></clipPath></defs><g clip-path="url(#a)" transform="matrix(1.25 0 0 -1.25 0 47.5)"><path fill="#3b88c3" d="M37 5a4 4 0 0 0-4-4H5a4 4 0 0 0-4 4v28a4 4 0 0 0 4 4h28a4 4 0 0 0 4-4V5Z"></path><path fill="#fff" d="M13.793 27.844c0 1.55.992 2.418 2.325 2.418 1.333 0 2.325-.868 2.325-2.418V12.28h5.52c1.58 0 2.263-1.179 2.233-2.233C26.133 9.024 25.327 8 23.963 8h-7.752c-1.519 0-2.418.992-2.418 2.543v17.301Z"></path></g></svg>